# xmcd CD database file
#
# Track frame offsets:
#	150
#	15008
#	30389
#	45085
#	67435
#	88384
#	102390
#	116249
#	135272
#	158608
#	179898
#	204397
#
# Disc length: 2923 seconds
#
# Revision: 0
# Processed by: cddbd v1.4b42PL1 Copyright (c) Steve Scherf et al.
# Submitted via: CDex 1.40Beta8
#
DISCID=9b0b690c
DTITLE=Hal Ketchum - Awaiting Redemption
DYEAR=1999
DGENRE=Country
TTITLE0=Days Of Wonder
TTITLE1=Long Way Down
TTITLE2=You Love Me, Love Me Not
TTITLE3=Too Many Memories
TTITLE4=Awaiting Redemption
TTITLE5=Slow Down Sunset
TTITLE6=Tell Me
TTITLE7=The Unforgiven
TTITLE8=When Blue Was Just A Color
TTITLE9=Turn Of The Wheel
TTITLE10=Dear Anna Lee
TTITLE11=Lonely Old Me
EXTD=YEAR: 1999 ID3G: 2
EXTT0=
EXTT1=
EXTT2=
EXTT3=
EXTT4=
EXTT5=
EXTT6=
EXTT7=
EXTT8=
EXTT9=
EXTT10=
EXTT11=
PLAYORDER=
